<svg width="64" height="64" viewBox="0 0 64 64" fill="none" xmlns="http://www.w3.org/2000/svg">
<path d="M6.82931 39.5C3.09974 35.6671 1 29.8807 1 24.449C1 19.0173 3.09998 13.8131 6.82938 9.98021C10.5582 6.14822 15.6102 4 20.8726 4C24.8652 4 28.7368 5.23651 32.0012 7.5069C33.1075 6.73791 34.2887 6.08389 35.5278 5.55639C37.9369 4.53087 40.5184 4.00313 43.1248 4.00313C45.7309 4.00313 48.3123 4.53062 50.7216 5.55625C53.1309 6.58191 55.322 8.08607 57.1684 9.98386C59.0151 11.8803 60.4814 14.1334 61.4824 16.6152C62.4839 19.098 63 21.7607 63 24.4506C63 28.9322 61.4932 35.1528 57.1755 39.4892C57.1687 39.4961 57.1594 39.5 57.1497 39.5V39.5C57.1401 39.5 57.131 39.5037 57.1242 39.5104L37.5808 58.5608C34.4757 61.5876 29.5243 61.5895 26.4168 58.5649L6.82931 39.5ZM6.82931 39.5H6.86115" stroke="#DBDBDB" stroke-width="1.5" stroke-linejoin="round"/>
<path d="M27.4627 47.7467L33.3033 39.5659" stroke="#828282" stroke-width="1.5" stroke-linecap="round" stroke-linejoin="round"/>
<path d="M49.9038 35.4361L42.9516 27.3639L42.193 28.134C40.016 30.0505 39.7816 33.3981 41.6699 35.6077L44.916 39.8416L44.9089 39.8332" stroke="#146EF5" stroke-width="1.5" stroke-linejoin="round"/>
<path d="M35.8126 48.1519L33.9319 45.6445C32.0436 43.4349 32.2779 40.0873 34.455 38.1708L35.2135 37.4008L41.1223 44.3025" stroke="#146EF5" stroke-width="1.5" stroke-linejoin="round"/>
<path d="M40.8022 43.9239L35.5782 37.7973C33.7582 35.6675 34.0481 32.3846 36.2255 30.4678L36.9859 29.6998L45.351 40.0709" stroke="#146EF5" stroke-width="1.5" stroke-linejoin="round"/>
<path d="M27.0364 23.4481V23.4481C24.197 26.6549 21.6284 30.0921 19.3571 33.7238L16.7056 37.9636L31.9591 51.9894L50.4054 35.0192C53.5432 32.2889 55.4009 28.1061 54.956 23.5122C54.3628 17.3029 49.4122 12.2503 43.2645 11.5715C38.819 11.0823 34.7412 12.8041 31.9937 15.7965" stroke="#828282" stroke-width="1.5" stroke-linecap="square" stroke-linejoin="round"/>
<path d="M26.6748 35.8544L22.126 42.5013" stroke="#828282" stroke-width="1.5" stroke-linecap="round" stroke-linejoin="round"/>
<path d="M19.3858 20.3491C21.1215 22.2981 23.5612 23.2401 25.9912 22.8936L29.5108 22.3956L30.316 23.2997C32.6785 25.9525 36.5164 25.8875 38.8114 23.1589L31.8639 15.8211C29.1485 12.8328 25.1102 11.1065 20.684 11.6012C14.5867 12.2877 9.66319 17.3555 9.06639 23.5642C8.6188 28.1575 10.4689 32.337 13.5722 35.0627L15.75 36.952" stroke="#146EF5" stroke-width="1.5" stroke-linecap="square" stroke-linejoin="round"/>
</svg>
