<svg width="64" height="64" viewBox="0 0 64 64" fill="none" xmlns="http://www.w3.org/2000/svg">
<g clip-path="url(#clip0_4426_34764)">
<path d="M9.03966 19.9729L8.58791 19.0807C8.3513 19.2005 8.17197 19.4094 8.08938 19.6615C8.00679 19.9135 8.0277 20.188 8.14751 20.4246L9.03966 19.9729ZM9.03988 19.9728L9.49163 20.8649C9.82955 20.6938 10.0418 20.3464 10.0399 19.9677L9.03988 19.9728ZM9.03988 19.9733L10.0399 19.9682C10.0391 19.813 10.0022 19.6601 9.93203 19.5216L9.03988 19.9733ZM9.18131 47.8138L8.18132 47.8189C8.18351 48.2494 8.46088 48.6301 8.86991 48.7641C9.27894 48.8982 9.72784 48.7554 9.98435 48.4098L9.18131 47.8138ZM17.4769 36.6352L18.369 36.1835C18.2125 35.8743 17.907 35.6682 17.5616 35.6388C17.2163 35.6094 16.8804 35.761 16.6739 36.0393L17.4769 36.6352ZM25.9139 53.297L25.0217 53.7487C25.1415 53.9853 25.3504 54.1647 25.6025 54.2473C25.8545 54.3299 26.129 54.3089 26.3656 54.1891L25.9139 53.297ZM33.3192 49.5472L33.771 50.4393C34.2637 50.1898 34.4609 49.5881 34.2114 49.0954L33.3192 49.5472ZM24.8822 32.8853L24.8771 31.8853C24.5305 31.887 24.2096 32.0681 24.0289 32.3639C23.8482 32.6596 23.8335 33.0278 23.9901 33.337L24.8822 32.8853ZM38.8027 32.8146L38.8078 33.8145C39.2382 33.8124 39.619 33.535 39.753 33.126C39.8871 32.7169 39.7443 32.268 39.3987 32.0115L38.8027 32.8146ZM16.445 16.223L17.0409 15.42L17.0409 15.42L16.445 16.223ZM8.99274 10.6928L9.58867 9.88973C9.2845 9.66401 8.87891 9.62951 8.54099 9.80063C8.20307 9.97174 7.99083 10.3191 7.99275 10.6978L8.99274 10.6928ZM9.49141 20.865L9.49163 20.8649L8.58813 19.0806L8.58791 19.0807L9.49141 20.865ZM9.93203 19.5216L9.9318 19.5211L8.14751 20.4246L8.14774 20.4251L9.93203 19.5216ZM10.1813 47.8088L10.0399 19.9682L8.0399 19.9784L8.18132 47.8189L10.1813 47.8088ZM16.6739 36.0393L8.37827 47.2179L9.98435 48.4098L18.2799 37.2311L16.6739 36.0393ZM26.806 52.8452L18.369 36.1835L16.5848 37.087L25.0217 53.7487L26.806 52.8452ZM32.8675 48.655L25.4621 52.4048L26.3656 54.1891L33.771 50.4393L32.8675 48.655ZM23.9901 33.337L32.4271 49.9989L34.2114 49.0954L25.7743 32.4335L23.9901 33.337ZM38.7977 31.8146L24.8771 31.8853L24.8873 33.8853L38.8078 33.8145L38.7977 31.8146ZM15.8491 17.0261L38.2068 33.6176L39.3987 32.0115L17.0409 15.42L15.8491 17.0261ZM8.39681 11.4958L15.8491 17.0261L17.0409 15.42L9.58867 9.88973L8.39681 11.4958ZM10.0399 19.9677L9.99273 10.6877L7.99275 10.6978L8.03989 19.9778L10.0399 19.9677Z" fill="#146EF5"/>
<path fill-rule="evenodd" clip-rule="evenodd" d="M7.14412 2.47403C5.23506 1.18028 2.65625 2.54785 2.65625 4.854V50.2978C2.65625 56.048 10.1388 58.2724 13.2799 53.4559L16.3178 48.7979L20.8256 58.1355C22.2451 61.0759 25.8164 62.2582 28.7101 60.7456L37.747 56.0217C40.5969 54.532 41.6834 51.0029 40.1649 48.1682L35.4464 39.3604L42.2633 38.5082C47.5572 37.8465 49.206 30.9787 44.7896 27.9858L7.14412 2.47403ZM0.65625 4.854C0.65625 0.943587 5.029 -1.37535 8.26612 0.818394L45.9116 26.3302C51.8558 30.3585 49.6366 39.6021 42.5114 40.4928L38.5849 40.9836L41.9278 47.2238C43.9718 51.0391 42.5094 55.7891 38.6735 57.7942L29.6366 62.518C25.7419 64.5539 20.9351 62.9627 19.0245 59.005L16.0572 52.8586L14.9552 54.5484C10.7273 61.0311 0.65625 58.0373 0.65625 50.2978V4.854Z" fill="#D8D8D8"/>
</g>
<defs>
<clipPath id="clip0_4426_34764">
<rect width="64" height="64" fill="white"/>
</clipPath>
</defs>
</svg>
