<svg width="65" height="64" viewBox="0 0 65 64" fill="none" xmlns="http://www.w3.org/2000/svg">
<path fill-rule="evenodd" clip-rule="evenodd" d="M36.0202 9.21765C33.8987 7.56847 30.9323 7.55597 28.797 9.18723L4.29704 27.9041C1.22318 30.2524 1.19247 34.8703 4.23483 37.2592L27.3428 55.4043C29.4281 57.0418 32.3482 57.092 34.4886 55.5272L59.6434 37.1379C62.8176 34.8174 62.8873 30.1035 59.7829 27.6903L36.0202 9.21765ZM27.5997 7.62001C30.4468 5.445 34.402 5.46166 37.2306 7.66057L60.9934 26.1332C65.1325 29.3508 65.0397 35.636 60.8073 38.7301L35.6525 57.1194C32.7986 59.2057 28.9052 59.1387 26.1247 56.9555L3.01682 38.8104C-1.03967 35.6251 -0.99872 29.4679 3.09976 26.3369L27.5997 7.62001Z" fill="#D8D8D8"/>
<path fill-rule="evenodd" clip-rule="evenodd" d="M52.3592 32.8944L41.7045 25.081L42.8708 23.4906L54.6099 32.0992C54.8632 32.285 55.0128 32.5803 55.0128 32.8944C55.0128 33.2086 54.8632 33.5039 54.6099 33.6896L42.8708 42.2983L41.7045 40.7079L52.3592 32.8944Z" fill="#146EF5"/>
<path fill-rule="evenodd" clip-rule="evenodd" d="M9.61884 32.0992L21.3579 23.4906L22.5242 25.081L11.8695 32.8944L22.5242 40.7079L21.3579 42.2983L9.61884 33.6896C9.36553 33.5039 9.21588 33.2086 9.21588 32.8944C9.21588 32.5803 9.36553 32.285 9.61884 32.0992Z" fill="#146EF5"/>
<path fill-rule="evenodd" clip-rule="evenodd" d="M38.0484 17.381L28.0633 49.0006L26.1826 48.4067L36.1678 16.7871L38.0484 17.381Z" fill="#146EF5"/>
</svg>
