<svg xmlns="http://www.w3.org/2000/svg" width="64" height="64" viewBox="0 0 64 64" fill="none">
<path d="M38.7365 15.7365L32 9L25.2635 15.7365H15.7365V25.2635L9 32L15.7365 38.7365V48.2635H25.2635L32 55L38.7365 48.2635H48.2635V38.7365L55 32L48.2635 25.2635V15.7365H38.7365Z" stroke="#898989" stroke-width="1.5" stroke-linejoin="round" fill="#000000"/>
<path d="M22.8154 32.8571L28.6935 38.8L41.1843 26.1714" stroke="white" stroke-width="1.5" fill="#000000"/>
<path d="M42.1048 7.60481L37.576 3.07604C34.4965 -0.00351992 29.5035 -0.00352353 26.424 3.07604L21.8952 7.60481H15.4905C11.1354 7.60481 7.60482 11.1354 7.60482 15.4905V21.8952L3.07604 26.424C-0.00352195 29.5035 -0.00352376 34.4965 3.07604 37.576L7.60482 42.1048V48.5095C7.60482 52.8646 11.1354 56.3952 15.4905 56.3952H21.8952L26.424 60.924C29.5035 64.0035 34.4965 64.0035 37.576 60.924L42.1048 56.3952H48.5095C52.8646 56.3952 56.3952 52.8646 56.3952 48.5095V42.1048L60.924 37.576C64.0035 34.4965 64.0035 29.5035 60.924 26.424L56.3952 21.8952V15.4905C56.3952 11.1354 52.8646 7.60481 48.5095 7.60481H42.1048Z" stroke="#e24e28" stroke-width="1.5" fill="#000000"/>
</svg>