<svg xmlns="http://www.w3.org/2000/svg" width="64" height="64" viewBox="0 0 64 64" fill="none">
<path d="M9 19H55" stroke="white" stroke-width="1.5" fill="#000000"/>
<path d="M1 14C1 9.58172 4.58172 6 9 6H55C59.4183 6 63 9.58172 63 14V50C63 54.4183 59.4183 58 55 58H9C4.58172 58 1 54.4183 1 50V14Z" stroke="#e24e28" stroke-width="1.5" fill="#000000"/>
<path d="M55 31V16C55 14.8954 54.1046 14 53 14H11C9.89543 14 9 14.8954 9 16V48C9 49.1046 9.89543 50 11 50H37" stroke="white" stroke-width="1.5" fill="#000000"/>
<path d="M52.7067 34.3994C53.3538 34.6623 53.9417 35.0476 54.4369 35.5333C54.9325 36.0187 55.3255 36.5952 55.5937 37.2297C55.8619 37.8643 56 38.5444 56 39.2313C56 39.9182 55.8619 40.5983 55.5937 41.2329C55.3255 41.8674 54.9325 42.4439 54.4369 42.9293L46.0002 51L37.562 42.9293C36.5619 41.9484 36 40.6179 36 39.2307C36 37.8434 36.5619 36.513 37.562 35.532C38.5622 34.5511 39.9187 34 41.3331 34C42.7475 34 44.1041 34.5511 45.1042 35.532L46.02 36.4267L46.8947 35.5333C47.39 35.0476 47.9779 34.6623 48.6249 34.3994C49.272 34.1366 49.9655 34.0013 50.6658 34.0013C51.3662 34.0013 52.0597 34.1366 52.7067 34.3994Z" stroke="#898989" stroke-width="1.5" stroke-linecap="round" stroke-linejoin="round" fill="#000000"/>
</svg>