<svg width="64" height="64" viewBox="0 0 64 64" fill="none" xmlns="http://www.w3.org/2000/svg">
<path d="M1 14C1 9.58172 4.58172 6 9 6H55C59.4183 6 63 9.58172 63 14V50C63 54.4183 59.4183 58 55 58H9C4.58172 58 1 54.4183 1 50V14Z" stroke="#146EF5" stroke-width="1.5"/>
<path d="M53.4797 42.3599V50.9998M53.4797 50.9998L58.2796 46.1998M53.4797 50.9998L48.6797 46.1998" stroke="#898989" stroke-width="1.5"/>
<path d="M53.4795 40.12V36.28" stroke="#898989" stroke-width="1.5"/>
<path d="M43.8398 37.56V35" stroke="#898989" stroke-width="1.5"/>
<path d="M43.84 39.48V45.24M43.84 45.24L47.68 41.4M43.84 45.24L40 41.4" stroke="#898989" stroke-width="1.5"/>
<path fill-rule="evenodd" clip-rule="evenodd" d="M9 13.25H8.25V14V50V50.75H9H38V49.25H16.9115L40.8868 27.012L46.5233 32H48.7867L41.372 25.4383C41.0832 25.1828 40.6477 25.1879 40.365 25.4501L14.7057 49.25H9.75V14.75H54.25V32H55.75V14V13.25H55H9ZM20 21.75C18.2051 21.75 16.75 23.2051 16.75 25C16.75 26.7949 18.2051 28.25 20 28.25C21.7949 28.25 23.25 26.7949 23.25 25C23.25 23.2051 21.7949 21.75 20 21.75ZM15.25 25C15.25 22.3766 17.3766 20.25 20 20.25C22.6234 20.25 24.75 22.3766 24.75 25C24.75 27.6234 22.6234 29.75 20 29.75C17.3766 29.75 15.25 27.6234 15.25 25Z" fill="white"/>
</svg>
