<svg width="64" height="64" viewBox="0 0 64 64" fill="none" xmlns="http://www.w3.org/2000/svg">
<path d="M9 19H55" stroke="white" stroke-width="1.5"/>
<path d="M1 14C1 9.58172 4.58172 6 9 6H55C59.4183 6 63 9.58172 63 14V50C63 54.4183 59.4183 58 55 58H9C4.58172 58 1 54.4183 1 50V14Z" stroke="#146EF5" stroke-width="1.5"/>
<path d="M55 29V16C55 14.8954 54.1046 14 53 14H11C9.89543 14 9 14.8954 9 16V48C9 49.1046 9.89543 50 11 50H38" stroke="white" stroke-width="1.5"/>
<path fill-rule="evenodd" clip-rule="evenodd" d="M49.9997 33.75C47.2843 33.75 45.083 35.9513 45.083 38.6667C45.083 40.425 46.0055 41.9684 47.3964 42.8385C47.993 43.2117 48.3292 44.0181 47.964 44.7484L45.5465 49.5833H54.4528L52.0353 44.7484C51.6702 44.0181 52.0063 43.2117 52.603 42.8385C53.9939 41.9684 54.9163 40.425 54.9163 38.6667C54.9163 35.9513 52.7151 33.75 49.9997 33.75ZM43.583 38.6667C43.583 35.1228 46.4558 32.25 49.9997 32.25C53.5435 32.25 56.4163 35.1228 56.4163 38.6667C56.4163 40.9633 55.2092 42.9774 53.3984 44.1102C53.3971 44.111 53.3958 44.1119 53.3946 44.1129L55.8548 49.0331C56.3257 49.9751 55.6408 51.0833 54.5877 51.0833H45.4117C44.3586 51.0833 43.6736 49.9751 44.1446 49.0331L46.6047 44.1129C46.6035 44.1119 46.6022 44.111 46.6009 44.1102C44.7901 42.9774 43.583 40.9633 43.583 38.6667Z" fill="#898989"/>
</svg>
