<svg width="96" height="25" viewBox="0 0 96 25" fill="none" xmlns="http://www.w3.org/2000/svg">
<g clip-path="url(#clip0_2272_12718)">
<g clip-path="url(#clip1_2272_12718)">
<g clip-path="url(#clip2_2272_12718)">
<mask id="mask0_2272_12718" style="mask-type:luminance" maskUnits="userSpaceOnUse" x="0" y="0" width="96" height="24">
<path d="M95.23 0.677002H0V23.9548H95.23V0.677002Z" fill="white"/>
</mask>
<g mask="url(#mask0_2272_12718)">
<mask id="mask1_2272_12718" style="mask-type:luminance" maskUnits="userSpaceOnUse" x="0" y="0" width="96" height="24">
<path d="M95.23 0.677002H0V23.9548H95.23V0.677002Z" fill="white"/>
</mask>
<g mask="url(#mask1_2272_12718)">
<path d="M0 5.52635H7.75925V19.105H0V22.9847H20.368V19.105H12.6088V5.52635H20.368V1.64673H0V5.52635Z" fill="white"/>
<path d="M49.4551 22.9847H69.8231V19.105H53.3347V14.2555H66.9134V10.3759H53.3347V5.52635H69.8231V1.64673H49.4551V22.9847Z" fill="white"/>
<path d="M83.9812 0.677002C80.9575 0.737966 78.0802 1.99067 75.9754 4.16251C73.8707 6.33435 72.709 9.24955 72.743 12.2737C72.6772 13.7919 72.9195 15.3077 73.4552 16.7297C73.9908 18.1519 74.8087 19.4507 75.8598 20.5482C76.9108 21.6457 78.1731 22.5192 79.5707 23.1158C80.9682 23.7126 82.4721 24.0202 83.9918 24.0202C85.5114 24.0202 87.0152 23.7126 88.4128 23.1158C89.8103 22.5192 91.0727 21.6457 92.1237 20.5482C93.1748 19.4507 93.9927 18.1519 94.5284 16.7297C95.064 15.3077 95.3063 13.7919 95.2406 12.2737C95.2741 10.7699 95.0083 9.27452 94.4586 7.87445C93.9089 6.47438 93.0861 5.19762 92.0383 4.11845C90.9906 3.03929 89.7387 2.17928 88.3554 1.58846C86.9722 0.997638 85.4853 0.687811 83.9812 0.677002ZM83.9812 19.9803C82.9923 19.9652 82.0162 19.7546 81.109 19.3606C80.2018 18.9666 79.3817 18.397 78.6957 17.6844C78.0097 16.972 77.4715 16.1308 77.1121 15.2095C76.7526 14.288 76.5792 13.3047 76.6014 12.3159C76.6014 10.3587 77.379 8.48159 78.7629 7.09762C80.147 5.71366 82.024 4.93615 83.9812 4.93615C85.9384 4.93615 87.8155 5.71366 89.1994 7.09762C90.5835 8.48159 91.3609 10.3587 91.3609 12.3159C91.3833 13.3047 91.2097 14.288 90.8503 15.2095C90.491 16.1308 89.9527 16.972 89.2667 17.6844C88.5808 18.397 87.7605 18.9666 86.8534 19.3606C85.9462 19.7546 84.9701 19.9652 83.9812 19.9803Z" fill="white"/>
<path d="M35.2005 1.64673H25.2168V22.9847H35.0107C36.4218 23.0132 37.8239 22.7526 39.1305 22.2188C40.4372 21.6851 41.6206 20.8895 42.6083 19.8813C43.5959 18.8729 44.3666 17.673 44.8731 16.3556C45.3796 15.0382 45.611 13.6311 45.5532 12.2209C45.5742 6.30649 41.5048 1.83649 35.2005 1.64673ZM35.1056 19.105H29.0963V5.52635H35.1056C38.9851 5.62124 41.431 8.43607 41.431 12.3157C41.431 16.1953 39.0063 19.0102 35.1056 19.105Z" fill="white"/>
</g>
</g>
</g>
</g>
</g>
<defs>
<clipPath id="clip0_2272_12718">
<rect width="95.23" height="25" fill="white"/>
</clipPath>
<clipPath id="clip1_2272_12718">
<rect width="95.23" height="25" fill="white"/>
</clipPath>
<clipPath id="clip2_2272_12718">
<rect width="95.23" height="24.9979" fill="white" transform="translate(0 0.000976562)"/>
</clipPath>
</defs>
</svg>
