<svg width="76" height="29" viewBox="0 0 76 29" fill="none" xmlns="http://www.w3.org/2000/svg">
<g clip-path="url(#clip0_2272_12733)">
<g clip-path="url(#clip1_2272_12733)">
<g clip-path="url(#clip2_2272_12733)">
<mask id="mask0_2272_12733" style="mask-type:luminance" maskUnits="userSpaceOnUse" x="0" y="0" width="76" height="29">
<path d="M75.08 0.110596H0.25V28.8289H75.08V0.110596Z" fill="white"/>
</mask>
<g mask="url(#mask0_2272_12733)">
<mask id="mask1_2272_12733" style="mask-type:luminance" maskUnits="userSpaceOnUse" x="0" y="0" width="76" height="29">
<path d="M75.08 0.110596H0.25V28.8289H75.08V0.110596Z" fill="white"/>
</mask>
<g mask="url(#mask1_2272_12733)">
<path d="M66.4091 4.51831C61.8144 4.51831 58.0898 8.24292 58.0898 12.8375C58.0898 17.4322 61.8144 21.1568 66.4091 21.1568C71.0037 21.1568 74.7283 17.4322 74.7283 12.8375C74.7211 8.24292 70.9965 4.5255 66.4091 4.51831ZM66.4091 17.2093C63.9931 17.2093 62.0373 15.2535 62.0373 12.8375C62.0373 10.4215 63.9931 8.46582 66.4091 8.46582C68.825 8.46582 70.7808 10.4215 70.7808 12.8375C70.7808 15.2535 68.8178 17.2093 66.4091 17.2093Z" fill="white"/>
<path d="M41.9118 11.1551L40.4593 10.4289C39.8265 10.1196 39.4382 9.87521 39.2729 9.69543C39.1219 9.53725 39.0356 9.32871 39.0356 9.10581C39.0356 8.82539 39.1578 8.58811 39.4095 8.40116C39.6612 8.21421 40.0063 8.12074 40.4521 8.12074C41.2646 8.12074 42.1706 8.61687 43.17 9.60198L45.6219 7.15004C44.4068 5.49626 42.4726 4.52556 40.4233 4.53275C38.9205 4.53275 37.691 4.97855 36.7275 5.86297C35.764 6.74738 35.2822 7.81875 35.2822 9.06267C35.2822 10.9969 36.5621 12.6147 39.1147 13.9018L40.4521 14.5705C41.6025 15.1529 42.1778 15.7497 42.1778 16.3609C42.1778 16.6917 42.0196 16.9793 41.6961 17.2309C41.3724 17.4826 40.9554 17.612 40.4305 17.612C39.9488 17.612 39.3879 17.4466 38.7696 17.1086C38.1512 16.7779 37.5903 16.3393 37.1158 15.8144L34.707 18.446C36.0803 20.2436 37.9211 21.1497 40.2292 21.1497C41.9621 21.1497 43.3426 20.6822 44.3781 19.7403C45.4134 18.7984 45.924 17.6264 45.924 16.2242C45.924 15.1673 45.6363 14.247 45.0683 13.4632C44.4931 12.6795 43.4432 11.91 41.9118 11.1551Z" fill="white"/>
<path d="M17.2267 4.84907H13.2792L13.2936 6.26557C12.0137 4.9713 10.4391 4.51831 8.82119 4.51831C4.22656 4.51831 0.501953 8.24292 0.501953 12.8375C0.501953 17.4322 4.22656 21.1568 8.82119 21.1568C10.7338 21.1568 12.3732 20.3084 13.2217 19.2298C13.2217 19.2945 13.2145 20.0783 13.2145 20.1645C13.2001 20.7038 13.1211 21.5594 12.6177 22.4367C11.3954 24.5075 8.72053 25.1906 6.6497 23.9682C6.61376 23.9467 6.58499 23.9323 6.54904 23.9107L4.58607 27.3261C5.87315 28.1099 7.35436 28.5197 8.86433 28.5197C11.0502 28.5197 13.7682 27.6569 15.7023 24.9821C17.3058 22.7603 17.2339 20.6606 17.2339 18.6258L17.2267 4.84907ZM8.82119 17.2093C6.40523 17.2093 4.44946 15.2535 4.44946 12.8375C4.44946 10.4216 6.40523 8.46582 8.82119 8.46582C11.2371 8.46582 13.1929 10.4216 13.1929 12.8375C13.1929 15.2535 11.2371 17.2093 8.82119 17.2093Z" fill="white"/>
<path d="M32.952 4.84912H28.9901C28.9901 4.84912 28.9901 12.6362 28.9901 12.7585C28.9972 13.8802 28.9972 15.8216 28.1703 16.6485C27.7748 17.044 27.3435 17.4035 26.4302 17.4035C25.5171 17.4035 25.0785 17.044 24.6831 16.6485C23.8561 15.8145 23.8561 13.873 23.8633 12.7585C23.8633 12.6434 23.8633 4.84912 23.8633 4.84912H19.9014V12.7298C19.8942 14.3548 19.8727 17.3748 21.8572 19.3737C23.022 20.5457 24.4169 21.1424 26.423 21.1424C28.4292 21.1424 29.8242 20.5457 30.989 19.3737C32.9807 17.3676 32.9592 14.3476 32.9448 12.7298L32.952 4.84912Z" fill="white"/>
<path d="M53.4597 17.1661C53.0067 17.1014 52.5609 16.785 52.3092 16.1955C52.1366 15.7928 52.0719 15.2606 52.0719 14.6063V8.24288H56.7312V4.84185H52.0719V0.412598H48.1172V14.2756C48.1172 15.6346 48.225 17.2811 49.1238 18.8055C49.8933 20.0998 51.2379 21.1424 53.4525 21.1424C56.1345 21.1424 58.0686 19.201 58.0686 19.201L55.6959 16.2817C55.7031 16.2961 54.6604 17.3243 53.4597 17.1661Z" fill="white"/>
</g>
</g>
</g>
</g>
</g>
<defs>
<clipPath id="clip0_2272_12733">
<rect width="74.83" height="29" fill="white" transform="translate(0.25)"/>
</clipPath>
<clipPath id="clip1_2272_12733">
<rect width="74.83" height="29" fill="white" transform="translate(0.25)"/>
</clipPath>
<clipPath id="clip2_2272_12733">
<rect width="74.83" height="28.9966" fill="white" transform="translate(0.25 0.00170898)"/>
</clipPath>
</defs>
</svg>
