<svg width="164" height="31" viewBox="0 0 164 31" fill="none" xmlns="http://www.w3.org/2000/svg">
<g clip-path="url(#clip0_2272_12758)">
<g clip-path="url(#clip1_2272_12758)">
<g clip-path="url(#clip2_2272_12758)">
<mask id="mask0_2272_12758" style="mask-type:luminance" maskUnits="userSpaceOnUse" x="0" y="0" width="164" height="31">
<path d="M163.989 0.620605H0.359375V30.4036H163.989V0.620605Z" fill="white"/>
</mask>
<g mask="url(#mask0_2272_12758)">
<path d="M3.75185 24.1612C3.14899 24.1624 2.55659 24.0037 2.03515 23.7011C1.51372 23.3985 1.08196 22.963 0.783968 22.4389C0.490538 21.9185 0.344197 21.3281 0.36062 20.731C0.377043 20.1337 0.555612 19.5523 0.8772 19.0489L6.98906 9.45097C7.30188 8.93514 7.746 8.51158 8.27608 8.22357C8.80615 7.93555 9.40316 7.79338 10.0062 7.81162C10.6087 7.82606 11.1965 8.00032 11.7096 8.31658C12.2227 8.63283 12.6425 9.07973 12.9261 9.61153C13.4959 10.6889 13.4247 11.9851 12.7423 12.9964L6.63427 22.5943C6.32452 23.077 5.89795 23.4737 5.39408 23.7475C4.89021 24.0214 4.32534 24.1637 3.75185 24.1612Z" fill="white"/>
<path d="M14.2339 24.1607C13.0012 24.1607 11.8669 23.5016 11.2713 22.4424C10.9785 21.9234 10.8325 21.3345 10.8489 20.7389C10.8653 20.1433 11.0436 19.5633 11.3645 19.0614L17.4647 9.48551C17.773 8.96242 18.2155 8.53133 18.7464 8.23692C19.2774 7.9425 19.8774 7.79552 20.4843 7.81119C21.7275 7.83838 22.854 8.53374 23.4238 9.62147C23.9897 10.7092 23.9068 12.0132 23.2036 13.0219L17.1047 22.5977C16.796 23.0784 16.3711 23.4735 15.8694 23.7467C15.3676 24.0198 14.8053 24.1622 14.2339 24.1607Z" fill="white"/>
<path d="M24.4845 24.2418C26.2222 24.2418 27.631 22.8625 27.631 21.1612C27.631 19.4598 26.2222 18.0806 24.4845 18.0806C22.7466 18.0806 21.3379 19.4598 21.3379 21.1612C21.3379 22.8625 22.7466 24.2418 24.4845 24.2418Z" fill="white"/>
<path d="M161.179 18.2583C162.129 18.2583 162.698 18.9344 162.698 20.0414V23.8355H163.989V19.9547C163.989 18.0719 163.103 16.9803 161.434 16.9803C160.782 16.9803 159.745 17.159 159.128 18.3593C158.985 18.0053 158.747 17.6968 158.443 17.4665C158.138 17.2361 157.776 17.0928 157.397 17.0515C157.157 17.0077 156.915 16.9934 156.672 17.0087C156.14 17.0515 155.195 17.3816 154.842 18.1301V17.1241H153.549V23.8355H154.842V20.2137C154.842 18.8048 155.764 18.2583 156.687 18.2583C157.551 18.2583 158.12 18.92 158.12 20.0273V23.8355H159.405V20.2137C159.405 19.0923 160.078 18.2455 161.179 18.2583ZM148.807 22.7142C149.397 22.727 149.967 22.4914 150.38 22.0641C150.793 21.6368 151.014 21.0554 150.993 20.4584C150.993 19.1066 149.997 18.2583 148.807 18.2583C147.614 18.2583 146.621 19.1066 146.621 20.4584C146.598 21.054 146.817 21.6342 147.229 22.0602C147.641 22.4876 148.208 22.7244 148.796 22.7142H148.807ZM148.807 23.9728C146.918 23.9728 145.342 22.5781 145.342 20.4507C145.342 18.3231 146.918 16.9726 148.807 16.9726C150.694 16.9726 152.283 18.3231 152.283 20.4507C152.283 22.5781 150.686 23.9792 148.797 23.9792L148.807 23.9728ZM138.693 20.4507L138.681 20.4584C138.681 18.3308 140.298 16.9803 142.199 16.9726C142.676 16.9633 143.151 17.0544 143.59 17.24C144.03 17.4255 144.427 17.7015 144.753 18.0499L143.774 18.8838C143.566 18.6796 143.32 18.5186 143.05 18.4102C142.78 18.3018 142.489 18.2479 142.199 18.2519C141.007 18.2519 139.971 19.1 139.971 20.4507C139.971 21.3636 140.513 22.1858 141.347 22.5354C142.18 22.8851 143.137 22.6909 143.774 22.0459L144.768 22.8799C144.439 23.2318 144.042 23.5111 143.599 23.6993C143.156 23.8876 142.679 23.9807 142.199 23.9728C140.312 23.9728 138.693 22.5781 138.693 20.4507ZM134.559 22.547C134.557 22.4298 134.579 22.3133 134.623 22.2044C134.666 22.0954 134.731 21.9961 134.813 21.9123C134.895 21.8283 134.993 21.7613 135.101 21.7152C135.209 21.669 135.324 21.6446 135.442 21.6432C135.559 21.6446 135.675 21.669 135.783 21.7152C135.891 21.7613 135.989 21.8283 136.071 21.9123C136.153 21.9961 136.217 22.0954 136.261 22.2044C136.305 22.3133 136.326 22.4298 136.325 22.547C136.313 22.7743 136.216 22.9886 136.052 23.1462C135.887 23.3038 135.669 23.3929 135.442 23.3953C135.214 23.3929 134.996 23.3038 134.832 23.1462C134.668 22.9886 134.57 22.7743 134.559 22.547Z" fill="white"/>
<path fill-rule="evenodd" clip-rule="evenodd" d="M138.093 8.59207H133.495L130.272 16.9015L127.066 8.59207H122.468L128.058 21.7224L124.581 30.4035H129.145L138.093 8.59207ZM110.129 15.8954C110.129 17.9932 111.962 19.3735 113.763 19.3735C115.533 19.3735 117.272 18.0889 117.272 15.8941C117.272 13.6992 115.533 12.4133 113.763 12.4133C111.962 12.4133 110.129 13.795 110.129 15.8941V15.8954ZM117.272 23.2271V21.5657C116.34 22.9772 114.165 23.5108 113.049 23.5108C109.353 23.5108 105.656 20.5972 105.656 15.8941C105.656 11.1922 109.352 8.2787 113.049 8.2787C113.979 8.2787 116.155 8.58948 117.272 10.2211V8.59725H121.559V23.2297L117.272 23.2271ZM104.436 23.2271H100.15V21.4091C99.4342 22.7557 97.6976 23.5405 95.8951 23.5405C92.1672 23.5405 88.8743 20.5635 88.8743 15.9536C88.8743 11.257 92.1672 8.27611 95.8951 8.27611C97.695 8.27611 99.4367 9.02716 100.15 10.3752V0.620605H104.436V23.2271ZM100.057 15.8617C100.057 13.6681 98.4732 12.3823 96.7032 12.3823C94.8696 12.3823 93.3468 13.7613 93.3468 15.8617C93.3468 18.0294 94.8696 19.402 96.7019 19.402C98.5057 19.4046 100.057 17.9621 100.057 15.8617ZM78.2769 15.4836C78.2769 13.2589 79.4268 12.5066 80.9483 12.5066C82.4076 12.5066 83.4643 13.4778 83.4643 15.4201V23.2245H87.7814V14.4814C87.7814 10.3143 85.7303 8.27611 82.4685 8.27611C80.7606 8.27611 79.0525 9.2473 78.2757 10.7209V8.59207H73.9611V23.2245H78.2769V15.4836ZM65.1947 23.4757C61.0951 23.4757 57.6752 20.4676 57.6752 15.8604C57.6752 11.2505 61.0911 8.27222 65.1947 8.27222C69.2981 8.27222 72.7439 11.2505 72.7439 15.8604C72.7439 20.4702 69.2943 23.4771 65.1947 23.4771V23.4757ZM65.1947 19.2155C66.9946 19.2155 68.4876 17.8973 68.4876 15.8617C68.4876 13.887 66.9959 12.539 65.1947 12.539C64.761 12.5322 64.3305 12.6137 63.9293 12.7787C63.5281 12.9437 63.1647 13.1886 62.8613 13.4985C62.556 13.8101 62.3166 14.1798 62.1571 14.5858C61.9977 14.9918 61.9213 15.4257 61.9329 15.8617C61.9341 17.8999 63.4246 19.2155 65.1947 19.2155ZM49.9358 12.5079C51.2086 12.5079 52.3274 13.5114 52.3274 15.4214V23.2271H56.6134V14.9164C56.6134 10.4982 54.4652 8.27352 51.0222 8.27352C49.9992 8.27352 48.0723 8.58429 46.674 10.8737C45.8659 9.18126 44.3133 8.3033 42.0188 8.3033C41.2221 8.29925 40.4412 8.52472 39.7693 8.95276C39.0974 9.3808 38.563 9.9933 38.23 10.717V8.59336H33.9102V23.2259H38.226V15.4836C38.226 13.2589 39.4381 12.5066 40.742 12.5066C41.9852 12.5066 43.1014 13.4778 43.1337 15.3269V23.2259H47.4508V15.4836C47.4508 13.356 48.5696 12.5079 49.9358 12.5079Z" fill="white"/>
</g>
</g>
</g>
</g>
<defs>
<clipPath id="clip0_2272_12758">
<rect width="163.63" height="30" fill="white" transform="translate(0.359375 0.5)"/>
</clipPath>
<clipPath id="clip1_2272_12758">
<rect width="163.63" height="30" fill="white" transform="translate(0.359375 0.5)"/>
</clipPath>
<clipPath id="clip2_2272_12758">
<rect width="163.63" height="29.9988" fill="white" transform="translate(0.359375 0.500488)"/>
</clipPath>
</defs>
</svg>
