<svg width="147" height="31" viewBox="0 0 147 31" fill="none" xmlns="http://www.w3.org/2000/svg">
<g clip-path="url(#clip0_2272_12749)">
<g clip-path="url(#clip1_2272_12749)">
<g clip-path="url(#clip2_2272_12749)">
<mask id="mask0_2272_12749" style="mask-type:luminance" maskUnits="userSpaceOnUse" x="0" y="1" width="147" height="30">
<path d="M146.34 1.24609H0.0898438V30.0427H146.34V1.24609Z" fill="white"/>
</mask>
<g mask="url(#mask0_2272_12749)">
<path d="M17.0548 6.65734L8.57234 12.0686L17.0548 17.4798L8.57234 22.8911L0.0898438 17.4506L8.57234 12.0393L0.0898438 6.65734L8.57234 1.24609L17.0548 6.65734ZM8.52847 24.6314L17.011 19.2202L25.4935 24.6314L17.011 30.0427L8.52847 24.6314ZM17.0548 17.4506L25.5373 12.0393L17.0548 6.65734L25.4935 1.24609L33.976 6.65734L25.4935 12.0686L33.976 17.4798L25.4935 22.8911L17.0548 17.4506Z" fill="white"/>
<path d="M40.6309 6.65688H47.49C51.8629 6.65688 55.4752 9.18701 55.4752 14.9639V16.1778C55.4752 21.9986 52.0969 24.6164 47.6216 24.6164H40.6309V6.65688ZM44.4626 9.91826V21.3404H47.4022C49.8885 21.3404 51.5557 19.7171 51.5557 16.1047V15.1541C51.5557 11.5416 49.8007 9.91826 47.2706 9.91826H44.4626ZM57.5081 10.0938H60.5794L61.0766 13.4722C61.6616 11.176 63.1534 9.94751 65.859 9.94751H66.8096V13.8232H65.2301C62.115 13.8232 61.3545 14.9054 61.3545 17.9767V24.6603H57.5666V10.0938H57.5081ZM67.5701 17.6696V17.2601C67.5701 12.3899 70.6852 9.72813 74.9265 9.72813C79.2555 9.72813 82.2829 12.3899 82.2829 17.2601V17.6696C82.2829 22.4519 79.3432 25.0259 74.9265 25.0259C70.2319 24.9821 67.5701 22.4666 67.5701 17.6696ZM78.4072 17.6257V17.2601C78.4072 14.5544 77.0471 12.931 74.8826 12.931C72.762 12.931 71.358 14.4228 71.358 17.2601V17.6257C71.358 20.2436 72.7181 21.7353 74.8826 21.7353C77.0471 21.6914 78.4072 20.2436 78.4072 17.6257ZM84.2719 10.0938H87.4309L87.7965 12.8433C88.557 11.0005 90.1804 9.72813 92.5789 9.72813C96.279 9.72813 98.7214 12.3899 98.7214 17.3186V17.7281C98.7214 22.5104 96.0157 25.0406 92.5789 25.0406C90.2827 25.0406 88.7032 24.0022 87.9281 22.3349V29.6913H84.228L84.2719 10.0938ZM94.875 17.6257V17.3039C94.875 14.4082 93.3832 12.9749 91.3942 12.9749C89.2736 12.9749 87.8696 14.5983 87.8696 17.3039V17.5818C87.8696 20.1558 89.2297 21.7792 91.3504 21.7792C93.5295 21.7353 94.875 20.3459 94.875 17.6257ZM104.323 21.9693L104.001 24.6311H100.754V5.22363H104.454V12.6678C105.273 10.7665 106.897 9.72813 109.193 9.72813C112.674 9.77201 115.248 12.1705 115.248 16.9968V17.4502C115.248 22.2764 112.805 25.0406 109.105 25.0406C106.663 24.9821 105.083 23.8559 104.323 21.9693ZM111.357 17.4502V17.0846C111.357 14.4228 109.909 12.931 107.877 12.931C105.8 12.931 104.352 14.5983 104.352 17.1284V17.4502C104.352 20.1558 105.756 21.7353 107.833 21.7353C110.056 21.7353 111.357 20.3459 111.357 17.4502ZM116.871 17.6696V17.2601C116.871 12.3899 119.986 9.72813 124.227 9.72813C128.557 9.72813 131.584 12.3899 131.584 17.2601V17.6696C131.584 22.4519 128.6 25.0259 124.227 25.0259C119.533 24.9821 116.871 22.4666 116.871 17.6696ZM127.738 17.6257V17.2601C127.738 14.5544 126.377 12.931 124.213 12.931C122.092 12.931 120.688 14.4228 120.688 17.2601V17.6257C120.688 20.2436 122.048 21.7353 124.213 21.7353C126.392 21.6914 127.738 20.2436 127.738 17.6257ZM136.542 17.0846L131.438 10.0938H135.81L138.75 14.4667L141.733 10.0938H146.063L140.885 17.0407L146.34 24.6311H142.055L138.72 19.8048L135.474 24.6311H130.999L136.542 17.0846Z" fill="white"/>
</g>
</g>
</g>
</g>
<defs>
<clipPath id="clip0_2272_12749">
<rect width="146.25" height="30" fill="white" transform="translate(0.0898438 0.5)"/>
</clipPath>
<clipPath id="clip1_2272_12749">
<rect width="146.25" height="30" fill="white" transform="translate(0.0898438 0.5)"/>
</clipPath>
<clipPath id="clip2_2272_12749">
<rect width="146.25" height="30" fill="white" transform="translate(0.0898438 0.5)"/>
</clipPath>
</defs>
</svg>
