<svg width="102" height="35" viewBox="0 0 102 35" fill="none" xmlns="http://www.w3.org/2000/svg">
<g clip-path="url(#clip0_7015_5073)">
<path d="M84.2001 21.2438C84.361 20.8179 84.4177 20.3597 84.3656 19.9074C84.3134 19.4551 84.1538 19.0218 83.9001 18.6438C83.6396 18.3314 83.32 18.0734 82.9597 17.8847C82.5993 17.6959 82.2053 17.5801 81.8001 17.5438L64.4001 17.3438C64.3001 17.3438 64.2001 17.2438 64.1001 17.2438C64.0768 17.2263 64.0579 17.2037 64.0449 17.1776C64.0319 17.1516 64.0251 17.1229 64.0251 17.0938C64.0251 17.0647 64.0319 17.0359 64.0449 17.0099C64.0579 16.9839 64.0768 16.9612 64.1001 16.9438C64.2001 16.7438 64.3001 16.6438 64.5001 16.6438L82.0001 16.4438C83.1111 16.3205 84.1692 15.9034 85.0656 15.2356C85.9619 14.5677 86.6642 13.6731 87.1001 12.6438L88.1001 10.0438C88.1001 9.94377 88.2001 9.84376 88.1001 9.74376C87.5565 7.32218 86.2372 5.14427 84.3427 3.54096C82.4482 1.93766 80.0821 0.996615 77.604 0.860827C75.1259 0.725038 72.6711 1.40193 70.6128 2.78864C68.5545 4.17536 67.0051 6.19608 66.2001 8.54377C65.1551 7.7974 63.8804 7.44332 62.6001 7.54377C61.4252 7.67477 60.3298 8.20152 59.4938 9.03747C58.6579 9.87341 58.1311 10.9688 58.0001 12.1438C57.9335 12.7452 57.9673 13.3534 58.1001 13.9438C56.1991 13.9963 54.3935 14.7885 53.0676 16.1518C51.7416 17.5151 50.9999 19.342 51.0001 21.2438C50.9837 21.6133 51.0174 21.9833 51.1001 22.3438C51.1047 22.4218 51.1378 22.4955 51.1931 22.5508C51.2484 22.6061 51.3221 22.6392 51.4001 22.6438H83.5001C83.7001 22.6438 83.9001 22.5438 83.9001 22.3438L84.2001 21.2438Z" fill="#363636"/>
<path d="M89.6998 10.0439H89.1998C89.0998 10.0439 88.9998 10.1439 88.8998 10.2439L88.1998 12.6439C88.0389 13.0699 87.9822 13.5281 88.0344 13.9803C88.0865 14.4326 88.2461 14.8659 88.4998 15.2439C88.7603 15.5563 89.0799 15.8143 89.4403 16.003C89.8006 16.1918 90.1946 16.3076 90.5998 16.3439L94.2998 16.5439C94.3998 16.5439 94.4998 16.6439 94.5998 16.6439C94.6231 16.6614 94.642 16.6841 94.655 16.7101C94.668 16.7361 94.6748 16.7648 94.6748 16.7939C94.6748 16.8231 94.668 16.8518 94.655 16.8778C94.642 16.9038 94.6231 16.9265 94.5998 16.9439C94.4998 17.1439 94.3998 17.2439 94.1998 17.2439L90.3998 17.4439C89.2888 17.5672 88.2307 17.9843 87.3343 18.6522C86.438 19.32 85.7357 20.2146 85.2998 21.2439L85.0998 22.1439C84.9998 22.2439 85.0998 22.4439 85.2998 22.4439H98.4998C98.5405 22.4498 98.5821 22.446 98.6211 22.433C98.6602 22.42 98.6957 22.3981 98.7248 22.3689C98.7539 22.3398 98.7758 22.3043 98.7888 22.2653C98.8019 22.2262 98.8056 22.1847 98.7998 22.1439C99.0379 21.2967 99.1722 20.4236 99.1998 19.5439C99.1839 17.0293 98.178 14.6221 96.3998 12.8439C94.6216 11.0658 92.2144 10.0598 89.6998 10.0439Z" fill="#363636"/>
<path d="M100.5 28.0437C100.322 28.0437 100.148 27.9909 100 27.892C99.852 27.7931 99.7367 27.6526 99.6686 27.4881C99.6005 27.3237 99.5826 27.1427 99.6174 26.9681C99.6521 26.7935 99.7378 26.6332 99.8637 26.5073C99.9895 26.3814 100.15 26.2957 100.324 26.261C100.499 26.2263 100.68 26.2441 100.844 26.3122C101.009 26.3803 101.149 26.4957 101.248 26.6437C101.347 26.7917 101.4 26.9657 101.4 27.1437C101.401 27.262 101.378 27.3793 101.333 27.4887C101.288 27.5981 101.221 27.6975 101.138 27.7812C101.054 27.8649 100.954 27.9311 100.845 27.9762C100.736 28.0213 100.618 28.0442 100.5 28.0437ZM100.5 26.4437C100.362 26.4437 100.226 26.4848 100.111 26.5617C99.996 26.6386 99.9063 26.7479 99.8533 26.8758C99.8004 27.0037 99.7865 27.1445 99.8135 27.2803C99.8405 27.4161 99.9072 27.5408 100.005 27.6387C100.103 27.7366 100.228 27.8032 100.363 27.8302C100.499 27.8573 100.64 27.8434 100.768 27.7904C100.896 27.7374 101.005 27.6477 101.082 27.5326C101.159 27.4175 101.2 27.2821 101.2 27.1437C101.202 27.0512 101.186 26.9591 101.151 26.8732C101.117 26.7872 101.066 26.7092 101 26.6437C100.935 26.5782 100.857 26.5268 100.771 26.4924C100.685 26.458 100.593 26.4414 100.5 26.4437ZM100.9 27.6437H100.7L100.5 27.3437H100.3V27.6437H100.1V26.7437H100.6C100.641 26.7379 100.682 26.7416 100.721 26.7546C100.76 26.7677 100.796 26.7896 100.825 26.8187C100.854 26.8478 100.876 26.8833 100.889 26.9224C100.902 26.9614 100.906 27.0029 100.9 27.0437C100.9 27.1437 100.8 27.2437 100.7 27.3437L100.9 27.6437ZM100.6 27.1437C100.7 27.1437 100.7 27.1437 100.7 27.0437C100.7 27.0305 100.698 27.0174 100.693 27.0051C100.688 26.9928 100.681 26.9817 100.671 26.9724C100.662 26.963 100.651 26.9557 100.639 26.9507C100.626 26.9458 100.613 26.9434 100.6 26.9437H100.3V27.2437H100.6V27.1437ZM10.9001 26.2437H13.1001V32.2437H16.9001V34.1437H10.9001V26.2437ZM19.2001 30.1437C19.2001 29.5882 19.3129 29.0386 19.5316 28.5279C19.7502 28.0173 20.0703 27.5564 20.4723 27.1731C20.8743 26.7898 21.3499 26.492 21.8704 26.2979C22.3908 26.1038 22.9452 26.0173 23.5001 26.0437C24.0497 26.0189 24.5986 26.1073 25.1128 26.3033C25.6269 26.4992 26.0953 26.7987 26.4891 27.183C26.8828 27.5674 27.1934 28.0285 27.4017 28.5377C27.61 29.047 27.7116 29.5936 27.7001 30.1437C27.7 30.6992 27.5873 31.2489 27.3686 31.7595C27.1499 32.2701 26.8299 32.731 26.4279 33.1143C26.0258 33.4976 25.5502 33.7954 25.0298 33.9895C24.5093 34.1836 23.9549 34.2701 23.4001 34.2437C22.8525 34.26 22.3073 34.1658 21.797 33.9668C21.2866 33.7678 20.8216 33.468 20.4296 33.0854C20.0377 32.7027 19.7268 32.245 19.5155 31.7396C19.3043 31.2342 19.197 30.6915 19.2001 30.1437ZM25.5001 30.1437C25.5197 29.8665 25.4828 29.5882 25.3918 29.3256C25.3008 29.063 25.1575 28.8216 24.9706 28.6159C24.7836 28.4103 24.557 28.2447 24.3042 28.1292C24.0514 28.0136 23.7779 27.9505 23.5001 27.9437C22.9608 27.97 22.4524 28.2028 22.0801 28.5937C21.7077 28.9846 21.5001 29.5038 21.5001 30.0437C21.5001 30.5836 21.7077 31.1028 22.0801 31.4937C22.4524 31.8846 22.9608 32.1174 23.5001 32.1437C24.7001 32.3437 25.5001 31.3437 25.5001 30.1437ZM30.4001 30.6437V26.2437H32.6001V30.6437C32.6001 31.7437 33.2001 32.3437 34.1001 32.3437C34.3103 32.3612 34.5217 32.3309 34.7185 32.2552C34.9154 32.1794 35.0925 32.0601 35.2368 31.9063C35.3811 31.7524 35.4887 31.5679 35.5516 31.3666C35.6145 31.1653 35.631 30.9523 35.6001 30.7437V26.2437H37.8001V30.6437C37.8001 33.2437 36.3001 34.3437 34.1001 34.3437C31.8001 34.2437 30.4001 33.1437 30.4001 30.6437ZM41.1001 26.2437H44.2001C47.0001 26.2437 48.7001 27.8437 48.7001 30.1437C48.7001 32.4437 47.0001 34.1437 44.2001 34.1437H41.2001V26.2437H41.1001ZM44.2001 32.1437C44.4787 32.1703 44.7599 32.1384 45.0255 32.05C45.2911 31.9615 45.5353 31.8186 45.7424 31.6303C45.9496 31.442 46.1151 31.2125 46.2283 30.9565C46.3416 30.7005 46.4001 30.4236 46.4001 30.1437C46.4001 29.8638 46.3416 29.5869 46.2283 29.3309C46.1151 29.0749 45.9496 28.8454 45.7424 28.6571C45.5353 28.4688 45.2911 28.3259 45.0255 28.2374C44.7599 28.149 44.4787 28.1171 44.2001 28.1437H43.3001V32.1437H44.2001ZM51.8001 26.2437H58.1001V28.1437H54.0001V29.4437H57.7001V31.2437H54.0001V34.1437H51.8001V26.2437ZM61.2001 26.2437H63.4001V32.2437H67.2001V34.1437H61.2001V26.2437ZM72.9001 26.1437H75.1001L78.5001 34.1437H76.1001L75.5001 32.7437H72.4001L71.8001 34.1437H69.5001L72.9001 26.1437ZM74.9001 31.0437L74.0001 28.8437L73.1001 31.0437H74.9001ZM81.3001 26.2437H85.0001C85.4721 26.2054 85.947 26.2656 86.3946 26.4206C86.8422 26.5755 87.2527 26.8217 87.6001 27.1437C87.8866 27.4526 88.0945 27.826 88.2062 28.2322C88.3179 28.6385 88.3301 29.0657 88.2419 29.4777C88.1536 29.8896 87.9674 30.2743 87.699 30.5991C87.4307 30.9239 87.088 31.1793 86.7001 31.3437L88.6001 34.1437H86.1001L84.5001 31.7437H83.5001V34.1437H81.3001V26.2437ZM84.9001 30.0437C85.6001 30.0437 86.1001 29.6437 86.1001 29.1437C86.1001 28.5437 85.6001 28.2437 84.9001 28.2437H83.5001V30.1437H84.9001V30.0437ZM91.4001 26.2437H97.8001V28.0437H93.6001V29.2437H97.4001V31.0437H93.6001V32.2437H97.9001V34.1437H91.4001V26.2437ZM6.10006 31.1437C5.94924 31.4971 5.69863 31.7989 5.37893 32.012C5.05922 32.2251 4.68429 32.3404 4.30006 32.3437C3.76083 32.3174 3.25239 32.0846 2.88006 31.6937C2.50774 31.3028 2.30006 30.7836 2.30006 30.2437C2.30006 29.7038 2.50774 29.1846 2.88006 28.7937C3.25239 28.4028 3.76083 28.17 4.30006 28.1437C4.70902 28.1516 5.10676 28.2788 5.44433 28.5098C5.78191 28.7407 6.0446 29.0654 6.20006 29.4437H8.50006C8.30331 28.4858 7.7734 27.6286 7.00446 27.0245C6.23552 26.4203 5.27732 26.1082 4.30006 26.1437C3.74729 26.1257 3.19647 26.218 2.67974 26.4152C2.16301 26.6124 1.69073 26.9105 1.29046 27.2922C0.89018 27.6738 0.569922 28.1314 0.348372 28.6381C0.126822 29.1449 0.00841661 29.6907 6.44058e-05 30.2437C-0.00301373 30.7915 0.104273 31.3342 0.315523 31.8396C0.526773 32.345 0.837658 32.8027 1.22963 33.1854C1.62161 33.568 2.08664 33.8678 2.59698 34.0668C3.10733 34.2658 3.65253 34.36 4.20006 34.3437C5.15552 34.3501 6.08614 34.0395 6.84616 33.4604C7.60618 32.8814 8.15268 32.0666 8.40006 31.1437H6.10006Z" fill="#363636"/>
</g>
<defs>
<clipPath id="clip0_7015_5073">
<rect width="101.4" height="33.5" fill="white" transform="translate(0 0.84375)"/>
</clipPath>
</defs>
</svg>
