<svg width="59" height="35" viewBox="0 0 59 35" fill="none" xmlns="http://www.w3.org/2000/svg">
<path d="M16.7687 12.6734C16.7687 13.3914 16.8464 13.9737 16.9822 14.4007C17.1375 14.8276 17.3316 15.2934 17.6033 15.798C17.7003 15.9533 17.7391 16.1086 17.7391 16.2444C17.7391 16.4385 17.6227 16.6326 17.3704 16.8266L16.1477 17.6418C15.973 17.7582 15.7983 17.8164 15.6431 17.8164C15.449 17.8164 15.2549 17.7194 15.0608 17.5447C14.7891 17.2536 14.5562 16.9431 14.3621 16.6326C14.1681 16.3026 13.974 15.9339 13.7605 15.4875C12.2467 17.273 10.3447 18.1658 8.05458 18.1658C6.42432 18.1658 5.12399 17.7 4.173 16.7684C3.22201 15.8368 2.73682 14.5947 2.73682 13.0421C2.73682 11.3924 3.31905 10.0533 4.50293 9.04408C5.68682 8.03487 7.25886 7.53026 9.25787 7.53026C9.91774 7.53026 10.597 7.58849 11.3151 7.68553C12.0332 7.78257 12.7707 7.93783 13.547 8.1125V6.69572C13.547 5.22072 13.2365 4.19211 12.6348 3.59046C12.0138 2.98882 10.9658 2.6977 9.47136 2.6977C8.79208 2.6977 8.0934 2.77533 7.3753 2.95C6.65721 3.12467 5.95853 3.33816 5.27925 3.60987C4.96872 3.74572 4.73583 3.82336 4.59997 3.86217C4.46412 3.90099 4.36708 3.92039 4.28945 3.92039C4.01774 3.92039 3.88188 3.72632 3.88188 3.31875V2.36776C3.88188 2.05724 3.9207 1.82434 4.01774 1.68849C4.11478 1.55263 4.28945 1.41678 4.56116 1.28092C5.24043 0.931579 6.05557 0.640461 7.00655 0.407566C7.95754 0.155263 8.96675 0.0388158 10.0342 0.0388158C12.3437 0.0388158 14.0322 0.562829 15.1191 1.61086C16.1865 2.65888 16.7299 4.25033 16.7299 6.3852V12.6734H16.7687ZM8.88912 15.6234C9.52958 15.6234 10.1894 15.5069 10.8881 15.274C11.5868 15.0411 12.2079 14.6141 12.7319 14.0319C13.0424 13.6632 13.2753 13.2556 13.3918 12.7898C13.5082 12.324 13.5858 11.7612 13.5858 11.1013V10.2862C13.023 10.1503 12.4214 10.0339 11.8003 9.95625C11.1793 9.87862 10.5776 9.8398 9.97596 9.8398C8.67563 9.8398 7.72465 10.0921 7.08418 10.6161C6.44372 11.1401 6.1332 11.8776 6.1332 12.848C6.1332 13.7602 6.36609 14.4395 6.85129 14.9053C7.31708 15.3905 7.99636 15.6234 8.88912 15.6234ZM24.4737 17.7194C24.1243 17.7194 23.8914 17.6612 23.7362 17.5253C23.5809 17.4089 23.445 17.1372 23.3286 16.7684L18.7677 1.76612C18.6513 1.37796 18.5931 1.12566 18.5931 0.989803C18.5931 0.679276 18.7483 0.504605 19.0589 0.504605H20.9608C21.3296 0.504605 21.5819 0.562829 21.7177 0.698684C21.873 0.815132 21.9894 1.08684 22.1059 1.45559L25.3664 14.3036L28.3941 1.45559C28.4911 1.06743 28.6075 0.815132 28.7628 0.698684C28.9181 0.582237 29.1898 0.504605 29.5391 0.504605H31.0917C31.4605 0.504605 31.7128 0.562829 31.8681 0.698684C32.0233 0.815132 32.1592 1.08684 32.2368 1.45559L35.3033 14.4589L38.6608 1.45559C38.7773 1.06743 38.9131 0.815132 39.049 0.698684C39.2042 0.582237 39.4566 0.504605 39.8059 0.504605H41.6108C41.9214 0.504605 42.096 0.659868 42.096 0.989803C42.096 1.08684 42.0766 1.18388 42.0572 1.30033C42.0378 1.41678 41.999 1.57204 41.9214 1.78553L37.2441 16.7878C37.1276 17.176 36.9918 17.4283 36.8365 17.5447C36.6812 17.6612 36.4289 17.7388 36.099 17.7388H34.4299C34.0612 17.7388 33.8089 17.6806 33.6536 17.5447C33.4983 17.4089 33.3625 17.1566 33.2848 16.7684L30.2766 4.25033L27.2878 16.749C27.1908 17.1372 27.0743 17.3895 26.9191 17.5253C26.7638 17.6612 26.4921 17.7194 26.1427 17.7194H24.4737ZM49.4128 18.2434C48.4036 18.2434 47.3944 18.127 46.424 17.8941C45.4536 17.6612 44.6967 17.4089 44.1921 17.1178C43.8816 16.9431 43.6681 16.749 43.5904 16.5743C43.5128 16.3997 43.474 16.2056 43.474 16.0309V15.0411C43.474 14.6336 43.6293 14.4395 43.9204 14.4395C44.0368 14.4395 44.1533 14.4589 44.2697 14.4977C44.3862 14.5365 44.5608 14.6141 44.7549 14.6918C45.4148 14.9829 46.1329 15.2158 46.8898 15.3711C47.6661 15.5263 48.423 15.6039 49.1993 15.6039C50.422 15.6039 51.373 15.3905 52.0329 14.9635C52.6927 14.5365 53.0421 13.9155 53.0421 13.1197C53.0421 12.5763 52.8674 12.1299 52.5181 11.7612C52.1687 11.3924 51.5089 11.0625 50.5579 10.752L47.7437 9.87862C46.3269 9.43224 45.2789 8.77237 44.6385 7.89901C43.998 7.04507 43.6681 6.09408 43.6681 5.08487C43.6681 4.26974 43.8427 3.55164 44.1921 2.93059C44.5414 2.30954 45.0072 1.76612 45.5894 1.33914C46.1717 0.892763 46.8316 0.562829 47.6079 0.329934C48.3842 0.0970395 49.1993 0 50.0533 0C50.4802 0 50.9266 0.0194079 51.3536 0.0776316C51.8 0.135855 52.2075 0.213487 52.6151 0.291118C53.0033 0.388158 53.372 0.485197 53.7214 0.601645C54.0707 0.718092 54.3424 0.83454 54.5365 0.950987C54.8082 1.10625 55.0023 1.26151 55.1187 1.43618C55.2352 1.59145 55.2934 1.80493 55.2934 2.07664V2.98882C55.2934 3.39638 55.1381 3.60987 54.847 3.60987C54.6918 3.60987 54.4394 3.53224 54.1095 3.37697C53.0033 2.87237 51.7612 2.62007 50.3832 2.62007C49.2769 2.62007 48.4036 2.79474 47.8019 3.16349C47.2003 3.53224 46.8898 4.09507 46.8898 4.89079C46.8898 5.43421 47.0839 5.9 47.472 6.26875C47.8602 6.6375 48.5783 7.00625 49.6069 7.33618L52.3628 8.20954C53.7602 8.65592 54.7694 9.27697 55.371 10.0727C55.9727 10.8684 56.2638 11.7806 56.2638 12.7898C56.2638 13.6243 56.0891 14.3813 55.7592 15.0411C55.4098 15.701 54.9441 16.2832 54.3424 16.749C53.7408 17.2342 53.0227 17.5836 52.1881 17.8359C51.3148 18.1076 50.4026 18.2434 49.4128 18.2434Z" fill="#363636"/>
<path fill-rule="evenodd" clip-rule="evenodd" d="M53.0806 27.6757C46.6954 32.3918 37.4184 34.8954 29.4418 34.8954C18.2628 34.8954 8.19014 30.7615 0.582247 23.8911C-0.0193978 23.3477 0.524023 22.6102 1.24212 23.0372C9.47106 27.8115 19.6214 30.7033 30.1211 30.7033C37.2049 30.7033 44.9875 29.2283 52.149 26.2007C53.2165 25.7155 54.1286 26.8994 53.0806 27.6757Z" fill="#363636"/>
<path fill-rule="evenodd" clip-rule="evenodd" d="M55.7394 24.6482C54.9242 23.6001 50.344 24.1436 48.2673 24.3959C47.6463 24.4735 47.5492 23.9301 48.1121 23.5225C51.7608 20.9607 57.7578 21.6982 58.4565 22.5521C59.1552 23.4255 58.2624 29.4225 54.8466 32.2949C54.3226 32.7413 53.818 32.5084 54.0509 31.9261C54.8272 30.0047 56.5545 25.6768 55.7394 24.6482Z" fill="#363636"/>
</svg>
