<svg width="64" height="64" viewBox="0 0 64 64" fill="none" xmlns="http://www.w3.org/2000/svg">
<path d="M12.4 60C7.76083 60 4.00003 56.2392 4.00007 51.6L4.0003 25.2815C4.00032 22.8875 5.07247 20.6193 6.92237 19.0997L26.9222 2.67118C29.8735 0.24691 34.1268 0.246911 37.0781 2.67118L57.0779 19.0997C58.9278 20.6193 60 22.8875 60 25.2816L59.9997 51.6001C59.9997 56.2393 56.2389 60 51.5998 60L12.4 60Z" stroke="#DBDBDB" stroke-width="1.5"/>
<path d="M32 10L12 25.5082L12 52L52 52L52 25.5082L32 10Z" stroke="#828282" stroke-width="1.5" stroke-linejoin="round"/>
<path d="M32.3638 22.4956V32.0544C32.3638 33.501 31.7892 34.8884 30.7662 35.9113L20.7275 45.95" stroke="#146EF5" stroke-width="1.5" stroke-linecap="round" stroke-linejoin="round"/>
<path d="M35.4551 37.9502L43.455 45.9501" stroke="#146EF5" stroke-width="1.5" stroke-linecap="round" stroke-linejoin="round"/>
<path d="M22.9102 30.6772L32.3647 21.2227L41.8192 30.6772" stroke="#146EF5" stroke-width="1.5" stroke-linecap="square"/>
</svg>
