<svg width="64" height="64" viewBox="0 0 64 64" fill="none" xmlns="http://www.w3.org/2000/svg">
<path fill-rule="evenodd" clip-rule="evenodd" d="M32 8.25C24.8431 8.25 18.9966 13.8608 18.6194 20.9237C12.8296 21.2999 8.25 26.1151 8.25 32C8.25 37.4417 12.1657 41.9688 17.3332 42.9172V41.3878C12.9996 40.4613 9.75 36.6102 9.75 32C9.75 26.6981 14.0481 22.4 19.35 22.4H19.35H20.1V21.65V21.65C20.1 15.0778 25.4279 9.75 32 9.75C38.5722 9.75 43.9 15.0778 43.9 21.65V21.65V22.4H44.65H44.65C49.952 22.4 54.25 26.6981 54.25 32C54.25 36.6103 51.0003 40.4615 46.6665 41.3879V42.9173C51.8341 41.9689 55.75 37.4418 55.75 32C55.75 26.1151 51.1704 21.2999 45.3807 20.9237C45.0034 13.8608 39.157 8.25 32 8.25Z" fill="#828282"/>
<path d="M31.7332 40.2674L25.5693 34.1035L31.7332 27.9397" stroke="#146EF5" stroke-width="1.5" stroke-linecap="square"/>
<path d="M22 44.4739C22.0052 50.2699 26.704 54.9634 32.5 54.9634C38.3013 54.9634 43 50.2646 43 44.4634C43 38.6621 38.3013 33.9634 32.5 33.9634L27.1947 33.9634" stroke="#146EF5" stroke-width="1.5" stroke-linecap="square" stroke-linejoin="round"/>
<circle cx="32" cy="32" r="31" stroke="#DBDBDB" stroke-width="1.5"/>
</svg>
