<svg width="64" height="64" viewBox="0 0 64 64" fill="none" xmlns="http://www.w3.org/2000/svg">
<path fill-rule="evenodd" clip-rule="evenodd" d="M32 8.71533C24.8431 8.71533 18.9966 14.3261 18.6194 21.389C12.8296 21.7652 8.25 26.5805 8.25 32.4654C8.25 38.3437 12.8194 43.1548 18.6 43.5404V43.5654H18.9998V42.0591C13.8601 41.8748 9.75 37.65 9.75 32.4654C9.75 27.1634 14.0481 22.8654 19.35 22.8654H19.35H20.1V22.1154V22.1153C20.1 15.5431 25.4279 10.2153 32 10.2153C38.5722 10.2153 43.9 15.5431 43.9 22.1153V22.1154V22.8654H44.65H44.65C49.952 22.8654 54.25 27.1634 54.25 32.4654C54.25 37.6502 50.1397 41.875 44.9998 42.0591V43.5654H45.4V43.5404C51.1806 43.1547 55.75 38.3437 55.75 32.4654C55.75 26.5805 51.1704 21.7652 45.3807 21.389C45.0034 14.3261 39.157 8.71533 32 8.71533Z" fill="#828282"/>
<path d="M42 38L32 28L22 38" stroke="#146EF5" stroke-width="1.5"/>
<path d="M32 28L32 56" stroke="#146EF5" stroke-width="1.5"/>
<circle cx="32" cy="32" r="31" stroke="#DBDBDB" stroke-width="1.5"/>
</svg>
