<svg width="64" height="64" viewBox="0 0 64 64" fill="none" xmlns="http://www.w3.org/2000/svg">
<path d="M55 28V14H9V28" stroke="#828282" stroke-width="1.5" stroke-linejoin="round"/>
<rect x="1" y="58" width="52" height="62" rx="8" transform="rotate(-90 1 58)" stroke="#DBDBDB" stroke-width="1.5"/>
<path d="M16 38.7964L23.4205 43.1934" stroke="#146EF5" stroke-width="1.5" stroke-miterlimit="10" stroke-linecap="square"/>
<path d="M23.4205 38.7964L16 43.1934" stroke="#146EF5" stroke-width="1.5" stroke-miterlimit="10" stroke-linecap="square"/>
<path d="M19.7109 37V45" stroke="#146EF5" stroke-width="1.5" stroke-miterlimit="10" stroke-linecap="square"/>
<path d="M28.2949 38.7964L35.7155 43.1934" stroke="#146EF5" stroke-width="1.5" stroke-miterlimit="10" stroke-linecap="square"/>
<path d="M35.7155 38.7964L28.2949 43.1934" stroke="#146EF5" stroke-width="1.5" stroke-miterlimit="10" stroke-linecap="square"/>
<path d="M32.0049 37V45" stroke="#146EF5" stroke-width="1.5" stroke-miterlimit="10" stroke-linecap="square"/>
<path d="M40.5889 38.7964L47.9997 43.1934" stroke="#146EF5" stroke-width="1.5" stroke-miterlimit="10" stroke-linecap="square"/>
<path d="M47.9997 38.7964L40.5889 43.1934" stroke="#146EF5" stroke-width="1.5" stroke-miterlimit="10" stroke-linecap="square"/>
<path d="M44.2891 37V45" stroke="#146EF5" stroke-width="1.5" stroke-miterlimit="10" stroke-linecap="square"/>
<path d="M15.6046 19.0508H18.9293C19.4915 19.0508 19.9839 19.1654 20.4064 19.3945C20.8325 19.6201 21.1601 19.937 21.3893 20.3452C21.622 20.7498 21.7384 21.2118 21.7384 21.731C21.7384 22.2573 21.6203 22.7228 21.3839 23.1274C21.1512 23.5321 20.82 23.849 20.3903 24.0781C19.9642 24.3073 19.4682 24.4219 18.9025 24.4219H16.6842V23.0146H18.6124C18.8882 23.0146 19.1263 22.9627 19.3268 22.8589C19.5273 22.7515 19.6795 22.6047 19.7833 22.4185C19.8872 22.2287 19.9409 22.0067 19.9445 21.7524C19.9445 21.5018 19.8908 21.2798 19.7833 21.0864C19.6795 20.8931 19.5255 20.7445 19.3214 20.6406C19.1209 20.5368 18.8828 20.4849 18.6071 20.4849H17.3288V27H15.6046V19.0508ZM26.2108 19.0508H28.3002L31.1576 27H29.3046L26.6244 19.2227L27.7201 19.2119L25.0883 27H23.348L26.2108 19.0508ZM25.0883 23.772H29.3851V25.1631H25.0883V23.772ZM36.6237 27.1182C35.9934 27.1182 35.4402 27.0143 34.964 26.8066C34.4913 26.5954 34.1189 26.3 33.8468 25.9204C33.5782 25.5409 33.4332 25.0968 33.4117 24.5884H35.1036C35.1215 24.8068 35.1985 25.0037 35.3346 25.1792C35.4742 25.3547 35.6533 25.4925 35.8717 25.5928C36.0937 25.693 36.3426 25.7432 36.6183 25.7432C36.8725 25.7432 37.0981 25.7038 37.295 25.625C37.492 25.5426 37.6442 25.4299 37.7516 25.2866C37.859 25.1398 37.9145 24.9751 37.9181 24.7925C37.9145 24.6349 37.8787 24.4971 37.8107 24.3789C37.7462 24.2572 37.6442 24.1569 37.5045 24.0781C37.3684 23.9993 37.193 23.9385 36.9781 23.8955L35.673 23.6055C35.2182 23.5052 34.8351 23.3566 34.5236 23.1597C34.212 22.9591 33.9757 22.7139 33.8146 22.4238C33.657 22.1338 33.5782 21.7972 33.5782 21.4141C33.5782 20.9342 33.7054 20.5063 33.9596 20.1304C34.2138 19.7508 34.5647 19.4554 35.0123 19.2441C35.4635 19.0329 35.9738 18.9272 36.5431 18.9272C37.1088 18.9272 37.6137 19.0275 38.0577 19.228C38.5053 19.4285 38.858 19.7114 39.1158 20.0767C39.3772 20.4383 39.5223 20.8555 39.5509 21.3281H37.8697C37.8411 21.1312 37.7641 20.9557 37.6388 20.8018C37.517 20.6442 37.3559 20.5225 37.1554 20.4365C36.9585 20.347 36.7436 20.3022 36.5109 20.3022C36.2745 20.3022 36.0669 20.3398 35.8878 20.415C35.7124 20.4867 35.5745 20.5905 35.4742 20.7266C35.3776 20.8626 35.3292 21.0184 35.3292 21.1938C35.3256 21.4194 35.4008 21.6021 35.5548 21.7417C35.7088 21.8778 35.9505 21.9834 36.2799 22.0586L37.4454 22.3218C37.9288 22.4328 38.3335 22.5903 38.6593 22.7944C38.9851 22.995 39.2286 23.251 39.3898 23.5625C39.5545 23.874 39.6368 24.2375 39.6368 24.6528C39.6368 25.1398 39.5133 25.5695 39.2662 25.9419C39.0192 26.3143 38.6665 26.6043 38.2081 26.812C37.7534 27.0161 37.2252 27.1182 36.6237 27.1182ZM45.6239 27.1182C44.9937 27.1182 44.4405 27.0143 43.9642 26.8066C43.4916 26.5954 43.1192 26.3 42.847 25.9204C42.5785 25.5409 42.4335 25.0968 42.412 24.5884H44.1039C44.1218 24.8068 44.1988 25.0037 44.3348 25.1792C44.4745 25.3547 44.6535 25.4925 44.8719 25.5928C45.0939 25.693 45.3428 25.7432 45.6185 25.7432C45.8727 25.7432 46.0983 25.7038 46.2953 25.625C46.4922 25.5426 46.6444 25.4299 46.7518 25.2866C46.8592 25.1398 46.9147 24.9751 46.9183 24.7925C46.9147 24.6349 46.8789 24.4971 46.8109 24.3789C46.7464 24.2572 46.6444 24.1569 46.5047 24.0781C46.3687 23.9993 46.1932 23.9385 45.9784 23.8955L44.6732 23.6055C44.2185 23.5052 43.8353 23.3566 43.5238 23.1597C43.2123 22.9591 42.9759 22.7139 42.8148 22.4238C42.6573 22.1338 42.5785 21.7972 42.5785 21.4141C42.5785 20.9342 42.7056 20.5063 42.9598 20.1304C43.2141 19.7508 43.565 19.4554 44.0126 19.2441C44.4637 19.0329 44.974 18.9272 45.5433 18.9272C46.1091 18.9272 46.614 19.0275 47.058 19.228C47.5056 19.4285 47.8583 19.7114 48.1161 20.0767C48.3775 20.4383 48.5225 20.8555 48.5511 21.3281H46.87C46.8413 21.1312 46.7644 20.9557 46.639 20.8018C46.5173 20.6442 46.3561 20.5225 46.1556 20.4365C45.9587 20.347 45.7438 20.3022 45.5111 20.3022C45.2748 20.3022 45.0671 20.3398 44.888 20.415C44.7126 20.4867 44.5747 20.5905 44.4745 20.7266C44.3778 20.8626 44.3295 21.0184 44.3295 21.1938C44.3259 21.4194 44.4011 21.6021 44.555 21.7417C44.709 21.8778 44.9507 21.9834 45.2801 22.0586L46.4457 22.3218C46.9291 22.4328 47.3337 22.5903 47.6595 22.7944C47.9854 22.995 48.2289 23.251 48.39 23.5625C48.5547 23.874 48.6371 24.2375 48.6371 24.6528C48.6371 25.1398 48.5135 25.5695 48.2665 25.9419C48.0194 26.3143 47.6667 26.6043 47.2084 26.812C46.7536 27.0161 46.2255 27.1182 45.6239 27.1182Z" fill="#828282"/>
<rect x="9" y="32" width="46" height="18" stroke="#146EF5" stroke-width="1.5" stroke-linejoin="round"/>
</svg>
