<svg width="64" height="65" viewBox="0 0 64 65" fill="none" xmlns="http://www.w3.org/2000/svg">
<circle cx="31" cy="32" r="31" stroke="#DBDBDB" stroke-width="1.5"/>
<path d="M54 32C54 44.7025 43.7025 55 31 55C18.2975 55 8 44.7025 8 32C8 19.2975 18.2975 9 31 9C35.8541 9 40.3569 10.5037 44.0682 13.0707C46.8659 15.0058 49.2137 17.5451 50.923 20.5C52.88 23.883 54 27.8107 54 32Z" stroke="#828282" stroke-width="1.5"/>
<path d="M31 36L40 27" stroke="#146EF5" stroke-width="1.5"/>
<path d="M17 36L45 36" stroke="#146EF5" stroke-width="1.5"/>
<path d="M46 32C46 40.2843 39.2843 47 31 47C22.7157 47 16 40.2843 16 32C16 23.7157 22.7157 17 31 17C34.1657 17 37.1023 17.9807 39.5227 19.6548C41.3473 20.9168 42.8785 22.5729 43.9933 24.5C45.2695 26.7063 46 29.2678 46 32Z" stroke="#146EF5" stroke-width="1.5"/>
</svg>
