<svg width="64" height="64" viewBox="0 0 64 64" fill="none" xmlns="http://www.w3.org/2000/svg">
<path d="M55.4234 46.6537V39.6592C62.6898 30.2574 63.0497 16.1977 62.5484 8.23325C62.3216 4.62978 59.4027 1.94092 55.7929 2.02019C47.9061 2.19338 34.0151 3.71926 24.0983 11.554H17.2258C14.9542 11.554 12.7898 12.5197 11.2724 14.2101L4.04655 22.2603C2.72885 23.7283 2 25.6314 2 27.6041V55C2 59.4183 5.58173 63 10 63H38.9107C41.0051 63 43.016 62.1787 44.5115 60.7124L53.0242 52.366C54.5588 50.8615 55.4234 48.8027 55.4234 46.6537Z" stroke="#DBDBDB" stroke-width="1.5"/>
<path d="M30.8135 34.1956L16.7379 48.2711" stroke="#146EF5" stroke-width="1.5" stroke-linecap="round" stroke-linejoin="round"/>
<circle cx="40.0439" cy="24.7856" r="4" stroke="#828282" stroke-width="1.5"/>
<path d="M44.751 37.1377C38.9576 38.69 34.0981 41.6206 31.9586 43.9355" stroke="#828282" stroke-width="1.5" stroke-linejoin="round"/>
<path d="M19.4277 32.5961C19.1348 32.889 19.1348 33.3639 19.4277 33.6568C19.7206 33.9497 20.1954 33.9497 20.4883 33.6568L19.4277 32.5961ZM20.4883 33.6568C21.9843 32.1609 23.7262 29.6375 25.2038 27.1489C26.6817 24.6597 27.9504 22.1116 28.4675 20.5361L27.0423 20.0683C26.5769 21.4862 25.375 23.9224 23.914 26.3831C22.4526 28.8444 20.7874 31.2364 19.4277 32.5961L20.4883 33.6568Z" fill="#828282"/>
<path d="M29.1918 18.7579C34.4246 13.525 45.9484 10.0462 53.7096 11.2999C54.9633 19.0611 51.4837 30.5841 46.2508 35.8169L44.8953 37.1267L44.8891 46.706L33.3204 57.8559L31.9586 43.5781L16.2985 48.7016L19.8667 33.0415L6.7664 31.6797L18.3027 20.1197L27.8734 20.1048L29.1918 18.7579Z" stroke="#146EF5" stroke-width="1.5" stroke-linecap="round" stroke-linejoin="round"/>
</svg>
