<svg width="64" height="64" viewBox="0 0 64 64" fill="none" xmlns="http://www.w3.org/2000/svg">
<path d="M25.5 60.1774L26.4944 60.8332C29.8343 63.0359 34.1657 63.0359 37.5056 60.8332L38.5 60.1774C57.1081 47.0974 61 37.1296 61 20.1527V17.6695C61 14.3729 58.9779 11.414 55.9067 10.2162L37.8134 3.15999C34.0749 1.70202 29.9251 1.70202 26.1866 3.15999L8.0933 10.2162C5.02208 11.414 3 14.3729 3 17.6695V20.1527C3 37.1296 6.89194 47.0974 25.5 60.1774Z" stroke="#146EF5" stroke-width="1.5"/>
<path d="M11 22.7106C11 33.668 16.5209 43.988 32 53C47.4791 43.988 53 33.668 53 22.7106V18L32 9.5L11 18V22.7106Z" stroke="#898989" stroke-width="1.5" stroke-linejoin="round"/>
<path d="M22 30.4706L28.72 38L43 22" stroke="white" stroke-width="1.5"/>
</svg>
