<svg width="64" height="64" viewBox="0 0 64 64" fill="none" xmlns="http://www.w3.org/2000/svg">
<path d="M4 12C4 7.58172 7.58172 4 12 4H52C56.4183 4 60 7.58172 60 12V52C60 56.4183 56.4183 60 52 60H12C7.58172 60 4 56.4183 4 52V12Z" stroke="#146EF5" stroke-width="1.5"/>
<path d="M24.7273 12H12.25C12.1119 12 12 12.1119 12 12.25V24.7273M39.2727 12H51.75C51.8881 12 52 12.1119 52 12.25V24.7273M52 39.2727V51.75C52 51.8881 51.8881 52 51.75 52H39.2727M24.7273 52H12.25C12.1119 52 12 51.8881 12 51.75V39.2727" stroke="#898989" stroke-width="1.5"/>
<circle cx="32" cy="32" r="14" stroke="white" stroke-width="1.5"/>
</svg>
